# xmcd
#
# Track frame offsets:
#	150
#	9203
#	20607
#	33239
#	42425
#	54307
#	68411
#	80236
#	95145
#	104447
#	115504
#	126597
#	138207
#	149100
#	158770
#	169157
#	178874
#	193101
#	202183
#	211998
#	227326
#	242202
#	254119
#	270074
#	280034
#	291693
#	303467
#	314230
#	324923
#	334711
#
# Disc length: 4592 seconds
#
# Revision: 0
# Processed by: cddbd v1.4PL0 Copyright (c) Steve Scherf et al.
# Submitted via: EasyCDDAExtractor 4.6.0.1
#
DISCID=c711ee1e
DTITLE=Various Artist - A Million Dollars Worth Of Doo-Wop  Vol 8
DYEAR=1900
DGENRE=Blues
TTITLE0=Vallandeers - The Mexican Hop
TTITLE1=Golden Nuggets - I Was A Fool
TTITLE2=Volumes - You Left Me Lonely
TTITLE3=Bel-Larks - Get Married In June
TTITLE4=Montereys - Without A Girl
TTITLE5=Fabulous Idols - Baby
TTITLE6=Orientals - Please Come Back Home
TTITLE7=Four Stars - The Chapel By The Sea
TTITLE8=Empires - Ride On
TTITLE9=Shamans - The Valley Of Tears
TTITLE10=Upsets - Mom And Dad
TTITLE11=Butchering Persians (Stick Legs and the) - The Wedding
TTITLE12=Dawns - I Love You So Tonight
TTITLE13=Yachtsmen - Our Future
TTITLE14=Bluffs - I Want To Know
TTITLE15=Rivals - Come With Me
TTITLE16=Mary Hylor and group - We Walked Down The Aisle
TTITLE17=Varcels (Frannie and the) - The Guy
TTITLE18=Big Five - Baby I Need You So
TTITLE19=Marksmen and The Agents - In My Diary
TTITLE20=Duprells - Never Let Me Go
TTITLE21=Continentals - Don't Leave Me
TTITLE22=Alma-Keys - Please Come Back
TTITLE23=Little Johnny McCall and group - My Love I Can't Hide
TTITLE24=Tranells - Come On And Tell Me
TTITLE25=Lords - Pancakes
TTITLE26=Embers - I'll Be With You
TTITLE27=Chappies - Suddenly There Were Tears
TTITLE28=Mandells - It's No Good
TTITLE29=Uniques - I Cross My fingers
EXTD=
EXTT0=
EXTT1=
EXTT2=
EXTT3=
EXTT4=
EXTT5=
EXTT6=
EXTT7=
EXTT8=
EXTT9=
EXTT10=
EXTT11=
EXTT12=
EXTT13=
EXTT14=
EXTT15=
EXTT16=
EXTT17=
EXTT18=
EXTT19=
EXTT20=
EXTT21=
EXTT22=
EXTT23=
EXTT24=
EXTT25=
EXTT26=
EXTT27=
EXTT28=
EXTT29=
PLAYORDER=
